<?xml version="1.0" encoding="utf-8"?>
<!-- Svg Vector Icons : http://www.onlinewebfonts.com/icon -->
<!DOCTYPE svg PUBLIC "-//W3C//DTD SVG 1.1//EN" "http://www.w3.org/Graphics/SVG/1.1/DTD/svg11.dtd">
<svg version="1.1" xmlns="http://www.w3.org/2000/svg" xmlns:xlink="http://www.w3.org/1999/xlink" x="0px" y="0px" viewBox="0 0 1000 1000" enable-background="new 0 0 1000 1000" xml:space="preserve">
<metadata> Svg Vector Icons : http://www.onlinewebfonts.com/icon </metadata>
<g><path d="M569.3,149.8V79.3L10,152.7v696l559.3,71.9v-71.6H990v-69.7v-0.1v-140v-69.8V429.3v-69.8V219.2v-5.5v-63.9L569.3,149.8L569.3,149.8z M392.2,650.1h-71.8l-50.1-116.8L217,650.1h-66.8l87.2-154.8L163.6,343H232l44.6,102.6L315.5,343h76.8l-81.8,146.9L392.2,650.1z M709.9,779.3H569.3v-140h140.6L709.9,779.3L709.9,779.3z M709.9,569.5H569.3V429.3h140.6L709.9,569.5L709.9,569.5z M709.9,359.6H569.3V219.2h140.6L709.9,359.6L709.9,359.6z M920.4,779.3H779.5v-140h140.9V779.3z M920.4,569.5H779.5V429.3h140.9V569.5z M920.4,359.6H779.5V219.2h140.9V359.6z"/></g>
</svg>